<?xml version="1.0" standalone="no"?>
<!DOCTYPE svg PUBLIC "-//W3C//DTD SVG 20010904//EN"
 "http://www.w3.org/TR/2001/REC-SVG-20010904/DTD/svg10.dtd">
<svg version="1.0" xmlns="http://www.w3.org/2000/svg"
 width="512.000000pt" height="512.000000pt" viewBox="0 0 512.000000 512.000000"
 preserveAspectRatio="xMidYMid meet">
<metadata>
Created by potrace 1.15, written by Peter Selinger 2001-2017
</metadata>
<g transform="translate(0.000000,512.000000) scale(0.100000,-0.100000)"
fill="#000000" stroke="none">
<path d="M2345 4910 l-210 -210 60 -60 60 -60 112 112 113 113 0 -833 0 -832
80 0 80 0 0 832 0 833 113 -113 112 -112 60 60 60 61 -155 150 c-85 83 -182
177 -215 209 l-61 59 -209 -209z"/>
<path d="M914 3973 c-451 -300 -822 -549 -827 -552 -4 -4 177 -131 403 -281
225 -150 410 -275 410 -277 0 -1 -185 -126 -411 -277 l-411 -274 446 -298 446
-297 0 -329 0 -328 795 -530 795 -530 795 530 795 530 0 328 0 329 446 297
446 298 -411 274 c-226 151 -411 276 -411 277 0 2 185 127 410 277 226 150
407 277 403 281 -5 3 -376 252 -827 552 l-819 545 -268 -179 c-148 -98 -269
-182 -269 -186 0 -19 84 -132 94 -126 6 4 103 68 216 143 113 75 210 139 217
143 10 6 1363 -885 1363 -898 0 -8 -658 -445 -670 -445 -6 0 -259 166 -563
368 -303 203 -557 371 -563 375 -7 4 -30 -22 -58 -63 l-46 -70 535 -357 c294
-196 535 -359 535 -362 -1 -3 -305 -207 -676 -454 l-676 -447 -674 447 c-370
247 -673 451 -674 454 0 3 241 166 535 362 l535 357 -46 70 c-28 41 -51 67
-58 63 -6 -4 -260 -172 -563 -375 -304 -202 -557 -368 -563 -368 -12 0 -670
437 -670 445 0 3 304 208 676 456 l676 451 202 -134 c110 -74 213 -142 227
-152 l26 -17 42 64 c22 35 41 66 41 70 0 4 -121 88 -269 186 l-268 179 -819
-545z m818 -1665 l678 -451 -335 -224 c-184 -122 -338 -223 -342 -223 -14 0
-1352 895 -1350 903 2 7 658 447 667 447 3 0 310 -203 682 -452z m2675 230
c183 -121 333 -224 333 -227 -1 -7 -1342 -901 -1353 -901 -4 0 -158 101 -342
223 l-335 224 677 451 c373 249 680 452 683 452 3 0 154 -100 337 -222z
m-1927 -1563 l0 -725 -675 450 -675 450 0 226 c0 191 2 225 14 221 8 -3 144
-92 301 -197 l287 -192 367 245 c201 135 369 246 374 246 4 1 7 -325 7 -724z
m539 479 l369 -246 287 192 c157 105 293 194 301 197 12 4 14 -30 14 -221 l0
-226 -675 -450 -675 -450 0 725 c0 399 2 725 5 725 3 0 171 -111 374 -246z"/>
</g>
</svg>
