<?xml version="1.0" standalone="no"?>
<!DOCTYPE svg PUBLIC "-//W3C//DTD SVG 20010904//EN"
 "http://www.w3.org/TR/2001/REC-SVG-20010904/DTD/svg10.dtd">
<svg version="1.0" xmlns="http://www.w3.org/2000/svg"
 width="512.000000pt" height="512.000000pt" viewBox="0 0 512.000000 512.000000"
 preserveAspectRatio="xMidYMid meet">
<metadata>
Created by potrace 1.15, written by Peter Selinger 2001-2017
</metadata>
<g transform="translate(0.000000,512.000000) scale(0.100000,-0.100000)"
fill="#000000" stroke="none">
<path d="M1895 4786 c-22 -7 -51 -18 -65 -26 -14 -7 -137 -124 -275 -260 -137
-136 -270 -260 -294 -275 -97 -60 -87 -59 -576 -65 l-450 -5 -50 -25 c-64 -31
-124 -91 -155 -155 l-25 -50 0 -1685 0 -1685 25 -50 c31 -64 91 -124 155 -155
l50 -25 2325 0 2325 0 50 25 c64 31 124 91 155 155 l25 50 0 1685 0 1685 -25
50 c-31 64 -91 124 -155 155 l-50 25 -450 5 -450 5 -80 39 c-74 36 -99 58
-330 286 -204 201 -261 252 -310 276 l-60 29 -635 2 c-491 2 -644 -1 -675 -11z
m1530 -596 c249 -249 297 -293 349 -317 l61 -28 432 -5 c416 -5 433 -6 459
-26 15 -11 37 -33 48 -48 21 -27 21 -28 21 -1526 0 -1498 0 -1499 -21 -1526
-11 -15 -33 -37 -48 -48 l-27 -21 -2139 0 -2139 0 -27 21 c-15 11 -37 33 -48
48 -21 27 -21 28 -21 1526 0 1498 0 1499 21 1526 11 15 33 37 48 48 26 20 43
21 464 26 l437 5 55 27 c43 22 117 89 345 318 l290 290 575 0 575 0 290 -290z"/>
<path d="M2420 3514 c-295 -38 -559 -166 -764 -372 -180 -182 -297 -398 -352
-652 -26 -119 -26 -381 0 -500 111 -513 493 -895 1006 -1006 119 -26 381 -26
500 0 512 110 896 494 1006 1006 26 119 26 381 0 500 -109 506 -484 887 -986
1001 -83 19 -331 33 -410 23z m371 -343 c300 -78 547 -293 658 -572 53 -132
65 -199 65 -359 0 -160 -12 -227 -65 -359 -47 -117 -114 -217 -213 -317 -134
-133 -280 -215 -462 -261 -95 -24 -333 -24 -428 0 -172 43 -317 122 -446 244
-328 308 -394 808 -158 1194 68 111 206 249 317 317 96 58 220 106 330 127
104 20 301 13 402 -14z"/>
<path d="M2495 2866 c-96 -42 -124 -171 -54 -251 33 -37 66 -50 152 -59 158
-17 267 -132 287 -302 13 -118 61 -169 160 -169 132 0 184 102 146 285 -39
187 -169 356 -336 439 -130 63 -284 88 -355 57z"/>
<path d="M4255 3506 c-101 -44 -125 -178 -46 -257 112 -113 296 -12 267 146
-18 94 -131 151 -221 111z"/>
</g>
</svg>
